<svg width="512" height="512" version="1.1" xmlns="http://www.w3.org/2000/svg" desc="Created with imagetracer.js version 1.2.6" ><path fill="rgb(248,208,160)" stroke="rgb(248,208,160)" stroke-width="1" opacity="0.9882352941176471" d="M 15.5 0 L 16 51.5 L 15 51.5 L 15.5 0 Z " /><path fill="rgb(248,208,160)" stroke="rgb(248,208,160)" stroke-width="1" opacity="0.9882352941176471" d="M 58.5 1 L 63.5 7 L 58.5 1 Z " /><path fill="rgb(248,208,160)" stroke="rgb(248,208,160)" stroke-width="1" opacity="0.9882352941176471" d="M 152.5 32 L 194.5 75 L 152.5 32 Z " /><path fill="rgb(248,208,160)" stroke="rgb(248,208,160)" stroke-width="1" opacity="0.9882352941176471" d="M 511.5 50 L 481.5 81 L 511.5 50 Z " /><path fill="rgb(248,208,160)" stroke="rgb(248,208,160)" stroke-width="1" opacity="0.9882352941176471" d="M 362.5 72 L 353.5 82 L 362.5 72 Z " /><path fill="rgb(248,208,160)" stroke="rgb(248,208,160)" stroke-width="1" opacity="0.9882352941176471" d="M 44.5 81 L 46.5 84 L 44.5 81 Z " /><path fill="rgb(248,208,160)" stroke="rgb(248,208,160)" stroke-width="1" opacity="0.9882352941176471" d="M 47.5 85 L 48 137.5 L 47 137.5 L 47.5 85 Z " /><path fill="rgb(248,208,160)" stroke="rgb(248,208,160)" stroke-width="1" opacity="0.9882352941176471" d="M 341.5 93 L 295.5 140 L 294 139.5 L 341.5 93 Z " /><path fill="rgb(248,208,160)" stroke="rgb(248,208,160)" stroke-width="1" opacity="0.9882352941176471" d="M 343.5 93 L 352.5 103 L 343.5 93 Z " /><path fill="rgb(248,208,160)" stroke="rgb(248,208,160)" stroke-width="1" opacity="0.9882352941176471" d="M 145.5 98 L 135.5 109 L 145.5 98 Z " /><path fill="rgb(248,208,160)" stroke="rgb(248,208,160)" stroke-width="1" opacity="0.9882352941176471" d="M 389.5 98 L 379.5 109 L 389.5 98 Z " /><path fill="rgb(248,208,160)" stroke="rgb(248,208,160)" stroke-width="1" opacity="0.9882352941176471" d="M 166.5 119 L 156.5 130 L 166.5 119 Z " /><path fill="rgb(248,208,160)" stroke="rgb(248,208,160)" stroke-width="1" opacity="0.9882352941176471" d="M 368.5 119 L 380 129.5 L 369.5 120 L 301.5 187 L 368.5 119 Z " /><path fill="rgb(248,208,160)" stroke="rgb(248,208,160)" stroke-width="1" opacity="0.9882352941176471" d="M 470.5 123 L 467.5 127 L 470.5 123 Z " /><path fill="rgb(248,208,160)" stroke="rgb(248,208,160)" stroke-width="1" opacity="0.9882352941176471" d="M 415.5 125 L 406.5 135 L 415.5 125 Z " /><path fill="rgb(248,208,160)" stroke="rgb(248,208,160)" stroke-width="1" opacity="0.9882352941176471" d="M 117.5 126 L 108.5 136 L 117.5 126 Z " /><path fill="rgb(248,208,160)" stroke="rgb(248,208,160)" stroke-width="1" opacity="0.9882352941176471" d="M 284.5 133 L 286.5 136 L 284.5 133 Z " /><path fill="rgb(248,208,160)" stroke="rgb(248,208,160)" stroke-width="1" opacity="0.9882352941176471" d="M 151.5 136 L 186.5 172 L 151.5 136 Z " /><path fill="rgb(248,208,160)" stroke="rgb(248,208,160)" stroke-width="1" opacity="0.9882352941176471" d="M 457.5 136 L 365.5 229 L 457.5 136 Z " /><path fill="rgb(248,208,160)" stroke="rgb(248,208,160)" stroke-width="1" opacity="0.9882352941176471" d="M 139.5 146 L 133.5 153 L 139.5 146 Z " /><path fill="rgb(248,208,160)" stroke="rgb(248,208,160)" stroke-width="1" opacity="0.9882352941176471" d="M 394.5 146 L 317.5 224 L 394.5 146 Z " /><path fill="rgb(248,208,160)" stroke="rgb(248,208,160)" stroke-width="1" opacity="0.9882352941176471" d="M 396.5 146 L 405.5 156 L 396.5 146 Z " /><path fill="rgb(248,208,160)" stroke="rgb(248,208,160)" stroke-width="1" opacity="0.9882352941176471" d="M 124.5 162 L 160.5 199 L 124.5 162 Z " /><path fill="rgb(248,208,160)" stroke="rgb(248,208,160)" stroke-width="1" opacity="0.9882352941176471" d="M 82.5 163 L 91.5 173 L 82.5 163 Z " /><path fill="rgb(248,208,160)" stroke="rgb(248,208,160)" stroke-width="1" opacity="0.9882352941176471" d="M 102.5 163 L 93.5 173 L 102.5 163 Z " /><path fill="rgb(248,208,160)" stroke="rgb(248,208,160)" stroke-width="1" opacity="0.9882352941176471" d="M 188.5 166 L 189 168.5 L 188 168.5 L 188.5 166 Z " /><path fill="rgb(248,208,160)" stroke="rgb(248,208,160)" stroke-width="1" opacity="0.9882352941176471" d="M 141.5 169 L 159.5 188 L 141.5 169 Z " /><path fill="rgb(248,208,160)" stroke="rgb(248,208,160)" stroke-width="1" opacity="0.9882352941176471" d="M 47.5 170 L 57.5 181 L 47.5 170 Z " /><path fill="rgb(248,208,160)" stroke="rgb(248,208,160)" stroke-width="1" opacity="0.9882352941176471" d="M 288.5 179 L 292.5 184 L 288.5 179 Z " /><path fill="rgb(248,208,160)" stroke="rgb(248,208,160)" stroke-width="1" opacity="0.9882352941176471" d="M 103.5 184 L 121.5 203 L 103.5 184 Z " /><path fill="rgb(248,208,160)" stroke="rgb(248,208,160)" stroke-width="1" opacity="0.9882352941176471" d="M 304.5 216 L 305.5 218 L 304.5 216 Z " /><path fill="rgb(248,208,160)" stroke="rgb(248,208,160)" stroke-width="1" opacity="0.9882352941176471" d="M 308.5 220 L 309.5 222 L 308.5 220 Z " /><path fill="rgb(248,208,160)" stroke="rgb(248,208,160)" stroke-width="1" opacity="0.9882352941176471" d="M 356.5 225 L 357.5 227 L 356.5 225 Z " /><path fill="rgb(248,208,160)" stroke="rgb(248,208,160)" stroke-width="1" opacity="0.9882352941176471" d="M 165.5 260 L 166 262.5 L 165 262.5 L 165.5 260 Z " /><path fill="rgb(248,208,160)" stroke="rgb(248,208,160)" stroke-width="1" opacity="0.9882352941176471" d="M 230.5 341 L 231 343.5 L 230 343.5 L 230.5 341 Z " /><path fill="rgb(248,208,160)" stroke="rgb(248,208,160)" stroke-width="1" opacity="0.9882352941176471" d="M 229.5 346 L 230 348 L 237 348.5 L 229 349 L 229.5 346 Z " /><path fill="rgb(248,208,160)" stroke="rgb(248,208,160)" stroke-width="1" opacity="0.9882352941176471" d="M 185.5 349 L 193 349.5 L 185.5 350 L 185.5 349 Z " /><path fill="rgb(248,208,160)" stroke="rgb(248,208,160)" stroke-width="1" opacity="0.9882352941176471" d="M 262.5 362 L 263 389.5 L 262 389.5 L 262.5 362 Z " /><path fill="rgb(248,208,160)" stroke="rgb(248,208,160)" stroke-width="1" opacity="0.9882352941176471" d="M 308.5 371 L 309 394.5 L 308 394.5 L 308.5 371 Z " /><path fill="rgb(248,208,160)" stroke="rgb(248,208,160)" stroke-width="1" opacity="0.9882352941176471" d="M 173.5 379 L 174 448.5 L 173 448.5 L 173.5 379 Z " /><path fill="rgb(248,208,160)" stroke="rgb(248,208,160)" stroke-width="1" opacity="0.9882352941176471" d="M 303.5 397 L 306.5 401 L 303.5 397 Z " /><path fill="rgb(248,208,160)" stroke="rgb(248,208,160)" stroke-width="1" opacity="0.9882352941176471" d="M 195.5 418 L 196.5 420 L 195.5 418 Z " /><path fill="rgb(248,208,160)" stroke="rgb(248,208,160)" stroke-width="1" opacity="0.9882352941176471" d="M 308.5 419 L 309 455.5 L 308 455.5 L 308.5 419 Z " /><path fill="rgb(248,208,160)" stroke="rgb(248,208,160)" stroke-width="1" opacity="0.9882352941176471" d="M 198.5 421 L 199.5 423 L 198.5 421 Z " /><path fill="rgb(248,208,160)" stroke="rgb(248,208,160)" stroke-width="1" opacity="0.9882352941176471" d="M 151.5 422 L 152 435.5 L 151 435.5 L 151.5 422 Z " /><path fill="rgb(248,208,160)" stroke="rgb(248,208,160)" stroke-width="1" opacity="0.9882352941176471" d="M 204.5 451 L 219 451.5 L 204.5 452 L 204.5 451 Z " /><path fill="rgb(248,208,160)" stroke="rgb(248,208,160)" stroke-width="1" opacity="0.9882352941176471" d="M 183.5 458 L 210.5 486 L 183.5 458 Z " /><path fill="rgb(248,208,160)" stroke="rgb(248,208,160)" stroke-width="1" opacity="0.9882352941176471" d="M 300.5 465 L 299.5 467 L 300.5 465 Z " /><path fill="rgb(248,208,160)" stroke="rgb(248,208,160)" stroke-width="1" opacity="0.9882352941176471" d="M 296.5 470 L 295.5 472 L 296.5 470 Z " /><path fill="rgb(255,217,169)" stroke="rgb(255,217,169)" stroke-width="1" opacity="0.996078431372549" d="M 445.5 1 L 415.5 32 L 445.5 1 Z " /><path fill="rgb(255,217,169)" stroke="rgb(255,217,169)" stroke-width="1" opacity="0.996078431372549" d="M 64.5 7 L 88.5 32 L 64.5 7 Z " /><path fill="rgb(255,217,169)" stroke="rgb(255,217,169)" stroke-width="1" opacity="0.996078431372549" d="M 16.5 52 L 38.5 75 L 16.5 52 Z " /><path fill="rgb(255,217,169)" stroke="rgb(255,217,169)" stroke-width="1" opacity="0.996078431372549" d="M 165.5 67 L 156.5 77 L 165.5 67 Z " /><path fill="rgb(255,217,169)" stroke="rgb(255,217,169)" stroke-width="1" opacity="0.996078431372549" d="M 325.5 67 L 316.5 77 L 325.5 67 Z " /><path fill="rgb(255,217,169)" stroke="rgb(255,217,169)" stroke-width="1" opacity="0.996078431372549" d="M 327.5 67 L 330.5 71 L 327.5 67 Z " /><path fill="rgb(255,217,169)" stroke="rgb(255,217,169)" stroke-width="1" opacity="0.996078431372549" d="M 146.5 98 L 156.5 109 L 146.5 98 Z " /><path fill="rgb(255,217,169)" stroke="rgb(255,217,169)" stroke-width="1" opacity="0.996078431372549" d="M 176.5 109 L 167.5 119 L 176.5 109 Z " /><path fill="rgb(255,217,169)" stroke="rgb(255,217,169)" stroke-width="1" opacity="0.996078431372549" d="M 178.5 109 L 213.5 145 L 178.5 109 Z " /><path fill="rgb(255,217,169)" stroke="rgb(255,217,169)" stroke-width="1" opacity="0.996078431372549" d="M 135.5 110 L 144.5 120 L 135.5 110 Z " /><path fill="rgb(255,217,169)" stroke="rgb(255,217,169)" stroke-width="1" opacity="0.996078431372549" d="M 466.5 127 L 458.5 136 L 466.5 127 Z " /><path fill="rgb(255,217,169)" stroke="rgb(255,217,169)" stroke-width="1" opacity="0.996078431372549" d="M 156.5 131 L 185.5 161 L 156.5 131 Z " /><path fill="rgb(255,217,169)" stroke="rgb(255,217,169)" stroke-width="1" opacity="0.996078431372549" d="M 150.5 135 L 140.5 146 L 150.5 135 Z " /><path fill="rgb(255,217,169)" stroke="rgb(255,217,169)" stroke-width="1" opacity="0.996078431372549" d="M 287.5 135 L 288.5 137 L 287.5 135 Z " /><path fill="rgb(255,217,169)" stroke="rgb(255,217,169)" stroke-width="1" opacity="0.996078431372549" d="M 48.5 138 L 123.5 214 L 48.5 138 Z " /><path fill="rgb(255,217,169)" stroke="rgb(255,217,169)" stroke-width="1" opacity="0.996078431372549" d="M 132.5 153 L 129.5 157 L 132.5 153 Z " /><path fill="rgb(255,217,169)" stroke="rgb(255,217,169)" stroke-width="1" opacity="0.996078431372549" d="M 123.5 162 L 103.5 183 L 123.5 162 Z " /><path fill="rgb(255,217,169)" stroke="rgb(255,217,169)" stroke-width="1" opacity="0.996078431372549" d="M 474.5 186 L 475.5 188 L 474.5 186 Z " /><path fill="rgb(255,217,169)" stroke="rgb(255,217,169)" stroke-width="1" opacity="0.996078431372549" d="M 306.5 218 L 307.5 220 L 306.5 218 Z " /><path fill="rgb(255,217,169)" stroke="rgb(255,217,169)" stroke-width="1" opacity="0.996078431372549" d="M 353.5 222 L 355.5 225 L 353.5 222 Z " /><path fill="rgb(255,217,169)" stroke="rgb(255,217,169)" stroke-width="1" opacity="0.996078431372549" d="M 181.5 383 L 182 397.5 L 181 397.5 L 181.5 383 Z " /><path fill="rgb(255,217,169)" stroke="rgb(255,217,169)" stroke-width="1" opacity="0.996078431372549" d="M 266.5 397 L 268.5 400 L 266.5 397 Z " /><path fill="rgb(255,217,169)" stroke="rgb(255,217,169)" stroke-width="1" opacity="0.996078431372549" d="M 240.5 412 L 242.5 415 L 240.5 412 Z " /><path fill="rgb(255,217,169)" stroke="rgb(255,217,169)" stroke-width="1" opacity="0.996078431372549" d="M 174.5 449 L 182.5 458 L 174.5 449 Z " /><path fill="rgb(0,0,0)" stroke="rgb(0,0,0)" stroke-width="1" opacity="0" d="M 79.5 0 L 425 0.5 L 407.5 17 L 365.5 17 L 322 60.5 L 326 66.5 L 315.5 77 L 310.5 72 L 263 119.5 L 258 130.5 L 258 140.5 Q 260.9 152.1 269.5 158 L 275 160.5 Q 263.3 167.3 263 185.5 Q 265.2 199.8 275.5 206 L 282 208.5 Q 277.7 213.7 279 224.5 L 283 234.5 L 287 240 L 295.5 245 L 307.5 247 L 317.5 244 L 328.5 235 L 336.5 246 Q 343 251.5 354.5 252 L 363.5 250 L 368.5 247 L 442.5 173 L 444 192.5 Q 446.4 202.1 453.5 207 L 465.5 212 L 474.5 212 Q 486.4 209.4 492 200.5 L 496 190.5 L 496 87.5 L 511.5 72 L 512 512 L 294.5 512 L 294 511.5 L 294 497.5 L 324 460.5 L 324 367.5 Q 321.1 355.9 312.5 350 L 302.5 346 L 292.5 346 L 278.5 353 Q 273.7 347.8 265.5 346 L 255.5 346 L 254 346.5 L 272 259.5 L 268 246.5 L 260.5 238 Q 254.2 233.3 243.5 233 Q 230.5 235 224 243.5 L 219 254.5 L 204.5 325 L 203 323.5 L 188 250.5 L 179.5 239 Q 173 233.5 161.5 233 L 147.5 238 L 142 243.5 Q 134.8 250.3 137 266.5 L 139 271.5 L 140 280.5 L 142 285.5 L 143 294.5 L 145 299.5 L 146 308.5 L 159 365.5 L 150 373.5 L 146 380.5 L 144 388.5 L 144 421 L 151 421 L 151 436 L 144.5 436 L 144 436.5 L 144 461.5 L 182 498.5 L 182 511.5 L 181.5 512 L 0 512 L 0.5 80 L 17 96.5 L 17 150.5 L 41.5 175 L 46.5 170 L 58 181.5 L 54 185.5 L 54 187.5 L 99.5 232 Q 105.8 237.7 119.5 236 Q 128.9 233.9 134 227.5 L 139.5 218 L 151.5 221 L 164.5 217 L 172 210.5 L 177 200.5 L 177 194 Q 191.6 193.9 198 184.5 Q 204.1 178.2 204 167 Q 218.1 167.5 224 158.5 Q 231 151.5 230 136.5 L 226 126.5 L 209 109.5 L 209 107.5 L 214 97.5 L 215 84.5 L 212 73.5 L 208 66.5 L 158.5 17 L 96.5 17 L 79.5 0 Z " /><path fill="rgb(255,218,170)" stroke="rgb(255,218,170)" stroke-width="1" opacity="1" d="M 16 0 L 57.5 0 L 58 1.5 L 88.5 32 L 151.5 32 L 196 76.5 Q 200.5 82 199 93.5 L 198 96 L 196.5 96 L 167.5 67 L 165.5 67 L 156 76.5 L 156 78.5 L 213 135.5 L 215 142.5 L 213.5 144 L 178.5 109 L 176.5 109 L 156 129.5 L 156 131.5 L 187 162.5 L 188 171 L 186.5 171 L 150.5 135 L 129 157.5 L 161 189.5 L 162 195.5 L 160.5 198 L 123.5 162 L 103 182.5 L 103 184.5 L 123 204.5 L 125 211.5 L 123.5 213 L 48 137.5 L 48 84.5 L 16 51.5 L 16 0 Z M 146 98 L 135 109 L 135 111 L 145 120 L 147 120 L 157 109 L 146 98 Z M 119 125 L 108 137 L 120 147 L 130 136 L 119 125 Z M 93 151 L 81 163 L 92 173 L 94 173 L 104 163 L 93 151 Z " /><path fill="rgb(255,218,170)" stroke="rgb(255,218,170)" stroke-width="1" opacity="1" d="M 446 0 L 512 0 L 512 49.5 L 481 80.5 L 481 186.5 L 480 189 Q 475.3 189.8 474 185.5 L 472 179.5 L 471.5 122 L 363.5 229 Q 356.1 226.4 352 220.5 L 350 213.5 L 407 156.5 L 396.5 146 L 394.5 146 L 315.5 224 Q 308.1 221.4 304 215.5 L 302 208.5 L 380 129.5 L 368.5 119 L 300.5 187 L 299.5 186 Q 292.1 184.9 289 179.5 L 286 171.5 L 354 103.5 L 343.5 93 L 341.5 93 L 295.5 139 L 293.5 139 L 284 132.5 Q 281 129.5 281 123.5 L 322 82.5 L 317 77.5 L 326.5 67 L 332.5 72 L 372.5 32 L 415.5 32 L 446 1.5 L 446 0 Z M 363 72 L 353 82 L 353 84 L 364 94 L 375 83 L 365 72 L 363 72 Z M 390 98 L 379 110 L 391 120 L 401 109 L 390 98 Z M 416 125 L 406 135 L 406 137 L 417 147 L 428 136 L 418 125 L 416 125 Z " /><path fill="rgb(255,218,170)" stroke="rgb(255,218,170)" stroke-width="1" opacity="1" d="M 163.5 249 Q 169.4 249.6 172 253.5 L 175 262.5 L 176 271.5 L 178 276.5 L 179 285.5 L 181 290.5 L 182 299.5 L 184 304.5 L 185 313.5 L 193 349 L 185.5 349 L 184 347.5 L 183 338.5 L 179 324.5 L 178 315.5 L 176 310.5 L 175 301.5 L 173 296.5 L 172 287.5 L 163.5 249 Z " /><path fill="rgb(255,218,170)" stroke="rgb(255,218,170)" stroke-width="1" opacity="1" d="M 250 251 L 254 253.5 Q 256.8 256.2 256 262.5 L 253 272.5 L 238 348 L 230 348 L 230 345.5 L 243 288.5 L 244 279.5 L 246 274.5 L 247 265.5 L 249 260.5 L 250 251 Z " /><path fill="rgb(255,218,170)" stroke="rgb(255,218,170)" stroke-width="1" opacity="1" d="M 263 362 L 268 364 L 271 369.5 L 271 396.5 L 269.5 400 Q 264.5 397 263 390.5 L 263 362 Z " /><path fill="rgb(255,218,170)" stroke="rgb(255,218,170)" stroke-width="1" opacity="1" d="M 300 362 Q 304.7 362.5 307 366.5 L 308 368.5 L 308 398.5 L 306.5 400 L 303 396.5 L 300 389.5 L 300 362 Z " /><path fill="rgb(255,218,170)" stroke="rgb(255,218,170)" stroke-width="1" opacity="1" d="M 175.5 376 L 231.5 376 L 232 378.5 L 230 383 L 181 383 L 181 414 Q 195.4 414.4 201 424.5 L 204 432.5 L 204 452 L 220 452 L 220 431.5 L 218 422.5 L 213 413 Q 226.6 410.8 234.5 402 Q 236.6 410.4 242.5 415 L 254.5 421 L 265.5 421 L 279.5 414 Q 286.3 422.7 303.5 421 L 307.5 419 L 308 455.5 L 279 491.5 L 279 512 L 212.5 512 L 212 511.5 L 212 502.5 L 211 501.5 L 211 485.5 L 174 448.5 L 174 377.5 L 175.5 376 Z " /><path fill="rgb(248,179,126)" stroke="rgb(248,179,126)" stroke-width="1" opacity="0.996078431372549" d="M 0 0 L 14.5 0 L 15 0.5 L 15 51.5 L 47 84.5 L 47 137.5 L 123.5 214 L 125 213.5 L 119.5 220 L 110.5 221 L 63.5 176 L 58.5 181 L 47 169.5 L 52 163.5 L 32 143.5 L 32 90.5 L 0 58.5 L 0 0 Z " /><path fill="rgb(248,179,126)" stroke="rgb(248,179,126)" stroke-width="1" opacity="0.996078431372549" d="M 371.5 32 L 332.5 72 L 371.5 32 Z " /><path fill="rgb(248,179,126)" stroke="rgb(248,179,126)" stroke-width="1" opacity="0.996078431372549" d="M 166.5 67 L 198 97.5 L 167.5 68 L 166.5 67 Z " /><path fill="rgb(248,179,126)" stroke="rgb(248,179,126)" stroke-width="1" opacity="0.996078431372549" d="M 364.5 72 L 373.5 82 L 364.5 72 Z " /><path fill="rgb(248,179,126)" stroke="rgb(248,179,126)" stroke-width="1" opacity="0.996078431372549" d="M 156.5 77 L 213 134.5 L 156 78.5 L 156.5 77 Z " /><path fill="rgb(248,179,126)" stroke="rgb(248,179,126)" stroke-width="1" opacity="0.996078431372549" d="M 316.5 77 L 320.5 82 L 316.5 77 Z " /><path fill="rgb(248,179,126)" stroke="rgb(248,179,126)" stroke-width="1" opacity="0.996078431372549" d="M 320.5 83 L 280 124.5 Q 281.4 132.1 286.5 136 L 295 140.5 Q 292.1 147.6 281.5 147 L 275 142.5 Q 272 139.5 273 132.5 L 275 128.5 L 320.5 83 Z " /><path fill="rgb(248,179,126)" stroke="rgb(248,179,126)" stroke-width="1" opacity="0.996078431372549" d="M 353.5 83 L 362.5 93 L 353.5 83 Z " /><path fill="rgb(248,179,126)" stroke="rgb(248,179,126)" stroke-width="1" opacity="0.996078431372549" d="M 373.5 83 L 364.5 93 L 373.5 83 Z " /><path fill="rgb(248,179,126)" stroke="rgb(248,179,126)" stroke-width="1" opacity="0.996078431372549" d="M 199.5 85 L 200 91.5 L 199 91.5 L 199.5 85 Z " /><path fill="rgb(248,179,126)" stroke="rgb(248,179,126)" stroke-width="1" opacity="0.996078431372549" d="M 390.5 98 L 401 109.5 L 389.5 120 L 379.5 109 L 390.5 119 L 400 108.5 L 390.5 98 Z " /><path fill="rgb(248,179,126)" stroke="rgb(248,179,126)" stroke-width="1" opacity="0.996078431372549" d="M 352.5 104 L 285 172.5 L 286 173.5 Q 287.1 180.9 292.5 184 L 301 187.5 Q 297.6 193.6 289.5 195 Q 282.9 194.1 280 189.5 Q 277.3 187.2 278 181.5 L 281 175.5 L 352.5 104 Z " /><path fill="rgb(248,179,126)" stroke="rgb(248,179,126)" stroke-width="1" opacity="0.996078431372549" d="M 156.5 109 L 146.5 120 L 145 119.5 L 156.5 109 Z " /><path fill="rgb(248,179,126)" stroke="rgb(248,179,126)" stroke-width="1" opacity="0.996078431372549" d="M 177.5 109 L 213.5 145 L 215 144.5 L 209.5 151 L 200.5 152 L 167 119.5 L 177.5 109 Z " /><path fill="rgb(248,179,126)" stroke="rgb(248,179,126)" stroke-width="1" opacity="0.996078431372549" d="M 471.5 123 L 472 182.5 L 476.5 189 L 480 190 L 480.5 188 L 481 189.5 L 475.5 196 L 466.5 197 L 460 192.5 L 458 188.5 L 458 136.5 L 471.5 123 Z " /><path fill="rgb(248,179,126)" stroke="rgb(248,179,126)" stroke-width="1" opacity="0.996078431372549" d="M 417.5 125 L 426.5 135 L 417.5 125 Z " /><path fill="rgb(248,179,126)" stroke="rgb(248,179,126)" stroke-width="1" opacity="0.996078431372549" d="M 120.5 126 L 130 136.5 L 118.5 147 L 108.5 136 L 119.5 146 L 129 135.5 L 120.5 126 Z " /><path fill="rgb(248,179,126)" stroke="rgb(248,179,126)" stroke-width="1" opacity="0.996078431372549" d="M 379.5 130 L 301 209.5 L 302 210.5 Q 303.4 218.6 309.5 222 L 317 224.5 Q 313.5 231 304.5 232 Q 298 230.5 295 225.5 L 294 217.5 L 296 213.5 L 379.5 130 Z " /><path fill="rgb(248,179,126)" stroke="rgb(248,179,126)" stroke-width="1" opacity="0.996078431372549" d="M 150.5 136 L 188 172.5 L 180.5 179 L 174.5 179 L 169.5 176 L 140 146.5 L 150.5 136 Z " /><path fill="rgb(248,179,126)" stroke="rgb(248,179,126)" stroke-width="1" opacity="0.996078431372549" d="M 406.5 136 L 415.5 146 L 406.5 136 Z " /><path fill="rgb(248,179,126)" stroke="rgb(248,179,126)" stroke-width="1" opacity="0.996078431372549" d="M 426.5 136 L 417.5 146 L 426.5 136 Z " /><path fill="rgb(248,179,126)" stroke="rgb(248,179,126)" stroke-width="1" opacity="0.996078431372549" d="M 91.5 152 L 82.5 162 L 91.5 152 Z " /><path fill="rgb(248,179,126)" stroke="rgb(248,179,126)" stroke-width="1" opacity="0.996078431372549" d="M 93.5 152 L 102.5 162 L 93.5 152 Z " /><path fill="rgb(248,179,126)" stroke="rgb(248,179,126)" stroke-width="1" opacity="0.996078431372549" d="M 129.5 157 L 140.5 169 L 129.5 157 Z " /><path fill="rgb(248,179,126)" stroke="rgb(248,179,126)" stroke-width="1" opacity="0.996078431372549" d="M 405.5 157 L 349 214.5 L 350 215.5 Q 351.4 223.6 357.5 227 L 365 229.5 Q 361.5 236 352.5 237 Q 346 235.5 343 230.5 L 342 222.5 L 345 217.5 L 405.5 157 Z " /><path fill="rgb(248,179,126)" stroke="rgb(248,179,126)" stroke-width="1" opacity="0.996078431372549" d="M 123.5 163 L 161 199.5 Q 158.6 205.6 150.5 206 L 143.5 203 L 114 173.5 L 123.5 163 Z " /><path fill="rgb(248,179,126)" stroke="rgb(248,179,126)" stroke-width="1" opacity="0.996078431372549" d="M 122.5 203 L 123.5 205 L 122.5 203 Z " /><path fill="rgb(248,179,126)" stroke="rgb(248,179,126)" stroke-width="1" opacity="0.996078431372549" d="M 158.5 249 Q 164.8 246.8 163 252.5 L 178 318.5 L 179 327.5 L 181 332.5 L 182 341.5 L 185.5 350 L 192.5 350 L 193 348.5 L 194 348.5 L 196 361 L 173.5 361 L 173 358.5 L 171 353.5 L 164 316.5 L 154 274.5 L 152 264.5 L 152 255.5 L 156.5 250 L 158.5 249 Z " /><path fill="rgb(248,179,126)" stroke="rgb(248,179,126)" stroke-width="1" opacity="0.996078431372549" d="M 240.5 249 L 250 249 L 250 252.5 L 229 349 L 236.5 349 L 237.5 348 L 238 350.5 Q 235.4 353.4 236 359.5 L 234.5 361 L 212.5 361 L 212 359.5 L 214 354.5 L 233 260.5 L 237.5 251 L 240.5 249 Z " /><path fill="rgb(248,179,126)" stroke="rgb(248,179,126)" stroke-width="1" opacity="0.996078431372549" d="M 169.5 250 L 171.5 253 L 169.5 250 Z " /><path fill="rgb(248,179,126)" stroke="rgb(248,179,126)" stroke-width="1" opacity="0.996078431372549" d="M 251.5 250 L 254.5 254 L 251.5 250 Z " /><path fill="rgb(248,179,126)" stroke="rgb(248,179,126)" stroke-width="1" opacity="0.996078431372549" d="M 257.5 361 L 264 361.5 L 262 362 L 262 389.5 Q 263.6 396.5 268.5 400 L 270 400.5 Q 267 405.5 259.5 406 L 255.5 405 L 250 399.5 L 249 396.5 L 249 369.5 L 254.5 362 L 257.5 361 Z " /><path fill="rgb(248,179,126)" stroke="rgb(248,179,126)" stroke-width="1" opacity="0.996078431372549" d="M 294.5 361 L 302 361.5 L 300 362 L 300 391.5 L 306 401.5 L 302.5 405 L 296.5 406 Q 290.8 404.8 288 400.5 L 286 394.5 L 286 372.5 L 289 364 L 294.5 361 Z " /><path fill="rgb(248,179,126)" stroke="rgb(248,179,126)" stroke-width="1" opacity="0.996078431372549" d="M 303.5 362 L 306.5 366 L 303.5 362 Z " /><path fill="rgb(248,179,126)" stroke="rgb(248,179,126)" stroke-width="1" opacity="0.996078431372549" d="M 267.5 363 L 268.5 365 L 267.5 363 Z " /><path fill="rgb(248,179,126)" stroke="rgb(248,179,126)" stroke-width="1" opacity="0.996078431372549" d="M 271.5 371 L 272 394.5 L 271 394.5 L 271.5 371 Z " /><path fill="rgb(248,179,126)" stroke="rgb(248,179,126)" stroke-width="1" opacity="0.996078431372549" d="M 171.5 376 Q 175.3 374.8 174 378.5 L 173 379.5 L 173 448.5 L 211 486.5 L 211 502.5 L 212 503.5 L 212 512 L 197 512 L 197 492.5 L 159 454.5 L 159 436 L 152 436 L 152 422.5 L 151.5 421 L 158.5 421 L 159 420.5 L 159 389.5 Q 160.5 382.6 165.5 379 L 171.5 376 Z " /><path fill="rgb(248,179,126)" stroke="rgb(248,179,126)" stroke-width="1" opacity="0.996078431372549" d="M 182 383 L 230 383.5 L 221.5 393 L 210.5 398 L 182 398 L 182 412.5 L 184.5 413 L 184.5 414 L 181 412.5 L 182 383 Z " /><path fill="rgb(248,179,126)" stroke="rgb(248,179,126)" stroke-width="1" opacity="0.996078431372549" d="M 308.5 395 L 309 397.5 L 308 397.5 L 308.5 395 Z " /><path fill="rgb(248,179,126)" stroke="rgb(248,179,126)" stroke-width="1" opacity="0.996078431372549" d="M 234.5 401 L 232.5 404 L 234.5 401 Z " /><path fill="rgb(248,179,126)" stroke="rgb(248,179,126)" stroke-width="1" opacity="0.996078431372549" d="M 238.5 409 L 239.5 411 L 238.5 409 Z " /><path fill="rgb(248,179,126)" stroke="rgb(248,179,126)" stroke-width="1" opacity="0.996078431372549" d="M 278.5 413 L 281 414.5 L 279.5 414 L 277.5 415 L 278.5 413 Z " /><path fill="rgb(248,179,126)" stroke="rgb(248,179,126)" stroke-width="1" opacity="0.996078431372549" d="M 243.5 414 L 244.5 416 L 243.5 414 Z " /><path fill="rgb(248,179,126)" stroke="rgb(248,179,126)" stroke-width="1" opacity="0.996078431372549" d="M 255.5 420 L 259 420.5 L 255.5 421 L 255.5 420 Z " /><path fill="rgb(248,179,126)" stroke="rgb(248,179,126)" stroke-width="1" opacity="0.996078431372549" d="M 262.5 420 L 265 420.5 L 262.5 421 L 262.5 420 Z " /><path fill="rgb(248,179,126)" stroke="rgb(248,179,126)" stroke-width="1" opacity="0.996078431372549" d="M 293.5 420 L 296 420.5 L 293.5 421 L 293.5 420 Z " /><path fill="rgb(248,179,126)" stroke="rgb(248,179,126)" stroke-width="1" opacity="0.996078431372549" d="M 299.5 420 L 303 420.5 L 299.5 421 L 299.5 420 Z " /><path fill="rgb(248,179,126)" stroke="rgb(248,179,126)" stroke-width="1" opacity="0.996078431372549" d="M 219.5 432 L 220 450.5 L 219 450.5 L 219.5 432 Z " /><path fill="rgb(248,179,126)" stroke="rgb(248,179,126)" stroke-width="1" opacity="0.996078431372549" d="M 306.5 458 L 305.5 460 L 306.5 458 Z " /><path fill="rgb(248,179,126)" stroke="rgb(248,179,126)" stroke-width="1" opacity="0.996078431372549" d="M 302.5 463 L 301.5 465 L 302.5 463 Z " /><path fill="rgb(248,179,126)" stroke="rgb(248,179,126)" stroke-width="1" opacity="0.996078431372549" d="M 298.5 468 L 297.5 470 L 298.5 468 Z " /><path fill="rgb(248,179,126)" stroke="rgb(248,179,126)" stroke-width="1" opacity="0.996078431372549" d="M 294.5 473 L 292.5 476 L 294.5 473 Z " /><path fill="rgb(248,179,126)" stroke="rgb(248,179,126)" stroke-width="1" opacity="0.996078431372549" d="M 290.5 478 L 288.5 481 L 290.5 478 Z " /><path fill="rgb(248,179,126)" stroke="rgb(248,179,126)" stroke-width="1" opacity="0.996078431372549" d="M 286.5 483 L 284.5 486 L 286.5 483 Z " /><path fill="rgb(248,179,126)" stroke="rgb(248,179,126)" stroke-width="1" opacity="0.996078431372549" d="M 281.5 489 L 280.5 491 L 281.5 489 Z " /><path fill="rgb(2,2,1)" stroke="rgb(2,2,1)" stroke-width="1" opacity="0.9921568627450981" d="M 59 0 L 78.5 0 L 96.5 17 L 158.5 17 L 208 66.5 Q 215.3 75.2 215 91.5 Q 212.8 92.7 214 97.5 L 209 109.5 L 226 126.5 L 230 136.5 L 230 145.5 Q 227.5 156 220.5 162 L 210.5 167 L 204 167 Q 204 181.4 194.5 188 Q 188.4 194.1 177 194 L 176 203.5 L 167.5 215 L 160.5 219 L 150.5 221 L 139.5 218 L 131.5 230 L 119.5 236 L 108.5 236 Q 100.3 234.2 95.5 229 L 54 187.5 L 54 185.5 L 63.5 176 L 108.5 220 L 117.5 221 L 124 215.5 L 125 206.5 L 104 184.5 L 104 182.5 L 113.5 173 L 143.5 203 L 151.5 206 L 155.5 205 L 161 199.5 L 162 190.5 L 130 156.5 L 140.5 147 L 169.5 176 Q 172.4 180.1 180.5 179 L 188 172.5 L 189 164.5 L 157 131.5 L 157 129.5 L 167.5 120 L 198.5 151 L 207.5 152 L 214 146.5 L 215 137.5 L 157 78.5 L 157 76.5 L 165.5 68 L 167.5 68 L 198 97.5 L 200 91.5 L 200 85.5 L 196 75.5 L 152.5 32 L 89.5 32 L 59 1.5 L 59 0 Z " /><path fill="rgb(2,2,1)" stroke="rgb(2,2,1)" stroke-width="1" opacity="0.9921568627450981" d="M 425.5 0 L 444.5 0 L 445 1.5 L 413.5 32 L 371.5 32 L 331.5 71 L 322 60.5 L 365.5 17 L 407.5 17 L 425.5 0 Z " /><path fill="rgb(2,2,1)" stroke="rgb(2,2,1)" stroke-width="1" opacity="0.9921568627450981" d="M 511.5 51 L 512 71.5 L 496 87.5 L 496 190.5 Q 493.4 202.4 484.5 208 L 474.5 212 L 465.5 212 Q 453.7 209.8 448 201.5 Q 441.3 191.2 442.5 173 L 368.5 247 L 360.5 251 L 352.5 252 L 343.5 250 L 333 242.5 L 328.5 235 L 315.5 245 L 303.5 247 L 295.5 245 L 287 240 L 280 228.5 L 279 215.5 L 282 208.5 Q 272.3 206.2 268 198.5 Q 262.7 192.3 263 180.5 Q 265.1 166.6 275 160.5 Q 267 158 263 151.5 L 258 140.5 L 258 130.5 L 263 119.5 L 310.5 72 L 321 82.5 L 275 128.5 Q 272 131.5 273 138.5 L 277.5 145 Q 280.2 147.8 286.5 147 L 289.5 146 L 341.5 94 L 343.5 94 L 353 103.5 L 281 175.5 Q 277.3 178.3 278 185.5 L 283.5 193 L 289.5 195 L 295.5 193 L 369.5 120 L 379 130.5 L 296 213.5 Q 293.2 216.2 294 222.5 L 299.5 230 L 306.5 232 L 311.5 230 L 394.5 147 L 396.5 147 L 406 156.5 L 345 217.5 Q 340.9 220.4 342 228.5 L 347.5 235 L 354.5 237 L 359.5 235 L 457.5 137 L 458 188.5 L 462.5 195 Q 465.5 198 472.5 197 L 480 191.5 L 481 189.5 L 481 81.5 L 511.5 51 Z " /><path fill="rgb(2,2,1)" stroke="rgb(2,2,1)" stroke-width="1" opacity="0.9921568627450981" d="M 0.5 59 L 32 90.5 L 32 143.5 L 52 164.5 L 41.5 175 L 17 150.5 L 17 96.5 L 0 79.5 L 0.5 59 Z " /><path fill="rgb(2,2,1)" stroke="rgb(2,2,1)" stroke-width="1" opacity="0.9921568627450981" d="M 363.5 72 L 374 82.5 L 363.5 93 L 353 82.5 L 363.5 72 Z " /><path fill="rgb(2,2,1)" stroke="rgb(2,2,1)" stroke-width="1" opacity="0.9921568627450981" d="M 145.5 99 L 156 108.5 L 146.5 119 L 144.5 119 L 136 110.5 L 136 108.5 L 145.5 99 Z " /><path fill="rgb(2,2,1)" stroke="rgb(2,2,1)" stroke-width="1" opacity="0.9921568627450981" d="M 389.5 99 L 400 108.5 L 390.5 119 L 380 109.5 L 389.5 99 Z " /><path fill="rgb(2,2,1)" stroke="rgb(2,2,1)" stroke-width="1" opacity="0.9921568627450981" d="M 416.5 125 L 427 135.5 L 416.5 146 L 406 135.5 L 416.5 125 Z " /><path fill="rgb(2,2,1)" stroke="rgb(2,2,1)" stroke-width="1" opacity="0.9921568627450981" d="M 118.5 126 L 129 135.5 L 119.5 146 L 109 136.5 L 118.5 126 Z " /><path fill="rgb(2,2,1)" stroke="rgb(2,2,1)" stroke-width="1" opacity="0.9921568627450981" d="M 92.5 152 L 103 162.5 L 92.5 173 L 82 162.5 L 92.5 152 Z " /><path fill="rgb(2,2,1)" stroke="rgb(2,2,1)" stroke-width="1" opacity="0.9921568627450981" d="M 161.5 233 Q 177.2 233.8 184 243.5 L 188 250.5 L 203 323.5 L 204.5 325 L 219 254.5 Q 221.4 244.4 228.5 239 Q 235 233.5 246.5 233 L 260.5 238 L 266 243.5 L 270 250.5 L 272 259.5 L 254 346.5 L 255.5 346 L 265.5 346 L 279.5 353 Q 284.3 347.8 292.5 346 L 302.5 346 Q 313.6 348.4 319 356.5 L 324 367.5 L 324 460.5 L 294 497.5 L 294 512 L 279 512 L 279 492.5 L 309 455.5 L 309 418.5 L 307.5 419 L 296.5 421 L 285.5 418 L 278.5 413 L 272.5 418 L 259.5 421 L 250.5 419 L 240 411.5 L 234.5 401 Q 226.7 410.6 212 412 L 219 428.5 L 219 451 L 204 451 L 204 430.5 Q 201.5 421.4 194.5 417 Q 189.5 413.2 182 413 L 182 398 L 210.5 398 Q 222.7 394.7 229 385.5 L 233 376 L 171.5 376 L 162 382.5 L 159 389.5 L 159 421 L 144 421 L 144 388.5 Q 146.5 374 156.5 367 L 159 365.5 L 146 308.5 L 145 299.5 L 143 294.5 L 142 285.5 L 140 280.5 L 139 271.5 L 137 266.5 L 137 253.5 Q 140.1 243.6 147.5 238 L 161.5 233 Z M 159 249 L 157 250 L 152 256 L 152 265 L 154 275 L 164 317 L 171 354 L 173 359 L 174 361 L 196 361 L 184 302 L 182 297 L 181 288 L 179 283 L 178 274 L 176 269 L 175 260 L 172 253 Q 169 247 159 249 Z M 241 249 L 238 251 L 233 261 L 214 355 L 212 360 L 213 361 L 235 361 L 236 360 Q 235 353 238 351 L 239 342 L 241 337 L 242 328 L 244 323 L 246 309 L 248 304 L 257 260 L 255 254 Q 252 247 241 249 Z M 258 361 L 255 362 L 249 370 L 249 397 L 250 400 L 256 405 L 260 406 L 267 404 Q 271 401 272 395 L 272 372 L 269 365 Q 266 360 258 361 Z M 295 361 L 289 364 L 286 373 L 286 395 L 288 401 Q 291 405 297 406 L 303 405 L 309 398 L 309 370 L 307 366 Q 305 359 295 361 Z " /><path fill="rgb(2,2,1)" stroke="rgb(2,2,1)" stroke-width="1" opacity="0.9921568627450981" d="M 144 436 L 159 436 L 159 454.5 L 197 492.5 L 197 512 L 182 512 L 182 498.5 L 144 461.5 L 144 436 Z " /></svg>